<svg width="170" height="148" viewBox="0 0 170 148" fill="none" xmlns="http://www.w3.org/2000/svg">
<mask id="path-1-inside-1_154_69" fill="white">
<path d="M147.868 35.9981C143.695 36.1206 139.652 37.4778 136.25 39.8981C132.848 42.3185 130.24 45.6932 128.756 49.5956C127.272 53.4981 126.979 57.7529 127.913 61.8221C128.847 65.8912 130.967 69.592 134.005 72.4563C137.042 75.3207 140.861 77.22 144.978 77.9141C149.095 78.6081 153.325 78.0658 157.134 76.3557C160.943 74.6455 164.159 71.8443 166.375 68.3064C168.592 64.7684 169.71 60.6526 169.587 56.4794C169.423 50.8832 167.043 45.5815 162.97 41.7405C158.896 37.8996 153.464 35.834 147.868 35.9981ZM148.752 66.1414C146.964 66.1939 145.2 65.7148 143.684 64.7648C142.167 63.8148 140.967 62.4365 140.234 60.8042C139.501 59.1718 139.269 57.3589 139.566 55.5945C139.864 53.8301 140.678 52.1935 141.905 50.8917C143.133 49.5899 144.719 48.6814 146.463 48.281C148.207 47.8806 150.03 48.0063 151.703 48.6423C153.375 49.2782 154.821 50.3959 155.859 51.8538C156.896 53.3118 157.478 55.0446 157.53 56.8331C157.6 59.2315 156.715 61.5595 155.069 63.3052C153.423 65.0508 151.151 66.0711 148.752 66.1414ZM42.9857 60.1938C42.8632 56.0205 41.506 51.9773 39.0857 48.5754C36.6654 45.1735 33.2906 42.5657 29.3882 41.0818C25.4857 39.5979 21.2309 39.3045 17.1617 40.2388C13.0926 41.173 9.39181 43.2929 6.52746 46.3304C3.66311 49.3679 1.7638 53.1866 1.06973 57.3035C0.37566 61.4205 0.917989 65.6508 2.62814 69.4595C4.33829 73.2682 7.13945 76.4843 10.6774 78.701C14.2154 80.9177 18.3312 82.0356 22.5044 81.9131C28.1006 81.7489 33.4023 79.3684 37.2433 75.2953C41.0842 71.2221 43.1498 65.7899 42.9857 60.1938ZM22.1507 69.8558C20.3621 69.9083 18.5982 69.4292 17.082 68.4792C15.5657 67.5292 14.3652 66.1509 13.6323 64.5186C12.8993 62.8862 12.6669 61.0733 12.9644 59.3089C13.2618 57.5444 14.0758 55.9079 15.3034 54.6061C16.531 53.3043 18.117 52.3958 19.861 51.9954C21.6049 51.595 23.4284 51.7207 25.1008 52.3567C26.7733 52.9926 28.2196 54.1103 29.2569 55.5682C30.2942 57.0262 30.8759 58.759 30.9283 60.5475C30.9987 62.9459 30.1135 65.2739 28.4673 67.0196C26.8212 68.7652 24.549 69.7855 22.1507 69.8558ZM57.6151 44.6799C61.7884 44.5575 65.8316 43.2003 69.2335 40.78C72.6354 38.3596 75.2432 34.9849 76.7271 31.0824C78.211 27.18 78.5044 22.9252 77.5701 18.856C76.6359 14.7868 74.516 11.0861 71.4785 8.22174C68.441 5.35739 64.6223 3.45809 60.5053 2.76402C56.3884 2.06994 52.1581 2.61227 48.3494 4.32242C44.5407 6.03258 41.3246 8.83374 39.1079 12.3717C36.8911 15.9096 35.7733 20.0255 35.8957 24.1987C36.0599 29.7949 38.4405 35.0966 42.5136 38.9376C46.5868 42.7785 52.019 44.8441 57.6151 44.6799ZM56.7307 14.5367C58.5193 14.4842 60.2832 14.9633 61.7995 15.9133C63.3157 16.8633 64.5162 18.2416 65.2491 19.8739C65.9821 21.5062 66.2145 23.3192 65.917 25.0836C65.6196 26.848 64.8056 28.4846 63.578 29.7864C62.3504 31.0882 60.7644 31.9967 59.0205 32.3971C57.2765 32.7975 55.453 32.6718 53.7806 32.0358C52.1081 31.3998 50.6618 30.2822 49.6245 28.8243C48.5872 27.3663 48.0055 25.6335 47.9531 23.845C47.8827 21.4466 48.768 19.1185 50.4141 17.3729C52.0602 15.6273 54.3324 14.607 56.7307 14.5367ZM111.873 43.0881C116.046 42.9656 120.089 41.6084 123.491 39.1881C126.893 36.7677 129.501 33.393 130.985 29.4906C132.469 25.5881 132.762 21.3333 131.828 17.2641C130.894 13.195 128.774 9.49421 125.736 6.62986C122.699 3.7655 118.88 1.8662 114.763 1.17213C110.646 0.478058 106.416 1.02039 102.607 2.73054C98.7986 4.44069 95.5825 7.24185 93.3658 10.7798C91.149 14.3178 90.0312 18.4336 90.1537 22.6068C90.3178 28.203 92.6984 33.5047 96.7715 37.3457C100.845 41.1866 106.277 43.2522 111.873 43.0881ZM110.989 12.9448C112.777 12.8923 114.541 13.3714 116.057 14.3214C117.574 15.2714 118.774 16.6497 119.507 18.282C120.24 19.9144 120.472 21.7273 120.175 23.4917C119.877 25.2561 119.063 26.8927 117.836 28.1945C116.608 29.4963 115.022 30.4048 113.278 30.8052C111.534 31.2056 109.711 31.0799 108.038 30.4439C106.366 29.808 104.92 28.6903 103.882 27.2324C102.845 25.7744 102.263 24.0416 102.211 22.2531C102.141 19.8547 103.026 17.5267 104.672 15.781C106.318 14.0354 108.59 13.0151 110.989 12.9448ZM130.641 88.4399C127.53 86.8404 124.764 84.643 122.502 81.9734C120.241 79.3038 118.528 76.2145 117.461 72.8821C115.254 66.0476 110.889 60.1138 105.021 55.9725C99.1534 51.8313 92.1 49.7063 84.9211 49.9169C77.7421 50.1275 70.8255 52.6624 65.2105 57.1405C59.5956 61.6187 55.5857 67.7982 53.7834 74.7504C52.0455 81.5696 47.6739 87.4211 41.6274 91.0213C35.8244 94.385 31.3084 99.5873 28.7937 105.805C26.279 112.024 25.9092 118.903 27.7426 125.355C29.5761 131.807 33.5083 137.463 38.9172 141.43C44.3261 145.396 50.903 147.446 57.6077 147.256C61.6258 147.149 65.5808 146.23 69.2341 144.554C80.8854 139.344 94.1249 138.955 106.062 143.473C113.296 146.37 121.372 146.354 128.595 143.428C135.818 140.502 141.628 134.893 144.807 127.778C147.985 120.662 148.286 112.592 145.645 105.26C143.004 97.9276 137.627 91.9024 130.642 88.4474L130.641 88.4399ZM117.54 133.429C115.093 133.503 112.656 133.08 110.376 132.184C95.432 126.518 78.8514 127.005 64.2648 133.537C60.0281 135.51 55.1921 135.768 50.7698 134.255C46.3475 132.743 42.682 129.578 40.5411 125.423C38.4002 121.269 37.95 116.447 39.2848 111.968C40.6196 107.489 43.6358 103.7 47.7016 101.395C52.0701 98.8122 55.8867 95.3939 58.9331 91.3353C61.9796 87.2767 64.1962 82.6575 65.4562 77.7416C66.6014 73.3153 69.1528 69.3805 72.7266 66.5289C76.3004 63.6773 80.7034 62.0631 85.2735 61.929C89.8436 61.7949 94.3337 63.1482 98.0685 65.7854C101.803 68.4226 104.581 72.201 105.984 76.5526C107.535 81.395 110.026 85.8839 113.314 89.762C116.603 93.6402 120.624 96.8314 125.148 99.1528C128.76 100.955 131.665 103.914 133.401 107.558C135.138 111.202 135.606 115.322 134.732 119.262C133.857 123.203 131.69 126.738 128.575 129.305C125.46 131.872 121.576 133.324 117.54 133.429Z"/>
</mask>
<path d="M147.868 35.9981C143.695 36.1206 139.652 37.4778 136.25 39.8981C132.848 42.3185 130.24 45.6932 128.756 49.5956C127.272 53.4981 126.979 57.7529 127.913 61.8221C128.847 65.8912 130.967 69.592 134.005 72.4563C137.042 75.3207 140.861 77.22 144.978 77.9141C149.095 78.6081 153.325 78.0658 157.134 76.3557C160.943 74.6455 164.159 71.8443 166.375 68.3064C168.592 64.7684 169.71 60.6526 169.587 56.4794C169.423 50.8832 167.043 45.5815 162.97 41.7405C158.896 37.8996 153.464 35.834 147.868 35.9981ZM148.752 66.1414C146.964 66.1939 145.2 65.7148 143.684 64.7648C142.167 63.8148 140.967 62.4365 140.234 60.8042C139.501 59.1718 139.269 57.3589 139.566 55.5945C139.864 53.8301 140.678 52.1935 141.905 50.8917C143.133 49.5899 144.719 48.6814 146.463 48.281C148.207 47.8806 150.03 48.0063 151.703 48.6423C153.375 49.2782 154.821 50.3959 155.859 51.8538C156.896 53.3118 157.478 55.0446 157.53 56.8331C157.6 59.2315 156.715 61.5595 155.069 63.3052C153.423 65.0508 151.151 66.0711 148.752 66.1414ZM42.9857 60.1938C42.8632 56.0205 41.506 51.9773 39.0857 48.5754C36.6654 45.1735 33.2906 42.5657 29.3882 41.0818C25.4857 39.5979 21.2309 39.3045 17.1617 40.2388C13.0926 41.173 9.39181 43.2929 6.52746 46.3304C3.66311 49.3679 1.7638 53.1866 1.06973 57.3035C0.37566 61.4205 0.917989 65.6508 2.62814 69.4595C4.33829 73.2682 7.13945 76.4843 10.6774 78.701C14.2154 80.9177 18.3312 82.0356 22.5044 81.9131C28.1006 81.7489 33.4023 79.3684 37.2433 75.2953C41.0842 71.2221 43.1498 65.7899 42.9857 60.1938ZM22.1507 69.8558C20.3621 69.9083 18.5982 69.4292 17.082 68.4792C15.5657 67.5292 14.3652 66.1509 13.6323 64.5186C12.8993 62.8862 12.6669 61.0733 12.9644 59.3089C13.2618 57.5444 14.0758 55.9079 15.3034 54.6061C16.531 53.3043 18.117 52.3958 19.861 51.9954C21.6049 51.595 23.4284 51.7207 25.1008 52.3567C26.7733 52.9926 28.2196 54.1103 29.2569 55.5682C30.2942 57.0262 30.8759 58.759 30.9283 60.5475C30.9987 62.9459 30.1135 65.2739 28.4673 67.0196C26.8212 68.7652 24.549 69.7855 22.1507 69.8558ZM57.6151 44.6799C61.7884 44.5575 65.8316 43.2003 69.2335 40.78C72.6354 38.3596 75.2432 34.9849 76.7271 31.0824C78.211 27.18 78.5044 22.9252 77.5701 18.856C76.6359 14.7868 74.516 11.0861 71.4785 8.22174C68.441 5.35739 64.6223 3.45809 60.5053 2.76402C56.3884 2.06994 52.1581 2.61227 48.3494 4.32242C44.5407 6.03258 41.3246 8.83374 39.1079 12.3717C36.8911 15.9096 35.7733 20.0255 35.8957 24.1987C36.0599 29.7949 38.4405 35.0966 42.5136 38.9376C46.5868 42.7785 52.019 44.8441 57.6151 44.6799ZM56.7307 14.5367C58.5193 14.4842 60.2832 14.9633 61.7995 15.9133C63.3157 16.8633 64.5162 18.2416 65.2491 19.8739C65.9821 21.5062 66.2145 23.3192 65.917 25.0836C65.6196 26.848 64.8056 28.4846 63.578 29.7864C62.3504 31.0882 60.7644 31.9967 59.0205 32.3971C57.2765 32.7975 55.453 32.6718 53.7806 32.0358C52.1081 31.3998 50.6618 30.2822 49.6245 28.8243C48.5872 27.3663 48.0055 25.6335 47.9531 23.845C47.8827 21.4466 48.768 19.1185 50.4141 17.3729C52.0602 15.6273 54.3324 14.607 56.7307 14.5367ZM111.873 43.0881C116.046 42.9656 120.089 41.6084 123.491 39.1881C126.893 36.7677 129.501 33.393 130.985 29.4906C132.469 25.5881 132.762 21.3333 131.828 17.2641C130.894 13.195 128.774 9.49421 125.736 6.62986C122.699 3.7655 118.88 1.8662 114.763 1.17213C110.646 0.478058 106.416 1.02039 102.607 2.73054C98.7986 4.44069 95.5825 7.24185 93.3658 10.7798C91.149 14.3178 90.0312 18.4336 90.1537 22.6068C90.3178 28.203 92.6984 33.5047 96.7715 37.3457C100.845 41.1866 106.277 43.2522 111.873 43.0881ZM110.989 12.9448C112.777 12.8923 114.541 13.3714 116.057 14.3214C117.574 15.2714 118.774 16.6497 119.507 18.282C120.24 19.9144 120.472 21.7273 120.175 23.4917C119.877 25.2561 119.063 26.8927 117.836 28.1945C116.608 29.4963 115.022 30.4048 113.278 30.8052C111.534 31.2056 109.711 31.0799 108.038 30.4439C106.366 29.808 104.92 28.6903 103.882 27.2324C102.845 25.7744 102.263 24.0416 102.211 22.2531C102.141 19.8547 103.026 17.5267 104.672 15.781C106.318 14.0354 108.59 13.0151 110.989 12.9448ZM130.641 88.4399C127.53 86.8404 124.764 84.643 122.502 81.9734C120.241 79.3038 118.528 76.2145 117.461 72.8821C115.254 66.0476 110.889 60.1138 105.021 55.9725C99.1534 51.8313 92.1 49.7063 84.9211 49.9169C77.7421 50.1275 70.8255 52.6624 65.2105 57.1405C59.5956 61.6187 55.5857 67.7982 53.7834 74.7504C52.0455 81.5696 47.6739 87.4211 41.6274 91.0213C35.8244 94.385 31.3084 99.5873 28.7937 105.805C26.279 112.024 25.9092 118.903 27.7426 125.355C29.5761 131.807 33.5083 137.463 38.9172 141.43C44.3261 145.396 50.903 147.446 57.6077 147.256C61.6258 147.149 65.5808 146.23 69.2341 144.554C80.8854 139.344 94.1249 138.955 106.062 143.473C113.296 146.37 121.372 146.354 128.595 143.428C135.818 140.502 141.628 134.893 144.807 127.778C147.985 120.662 148.286 112.592 145.645 105.26C143.004 97.9276 137.627 91.9024 130.642 88.4474L130.641 88.4399ZM117.54 133.429C115.093 133.503 112.656 133.08 110.376 132.184C95.432 126.518 78.8514 127.005 64.2648 133.537C60.0281 135.51 55.1921 135.768 50.7698 134.255C46.3475 132.743 42.682 129.578 40.5411 125.423C38.4002 121.269 37.95 116.447 39.2848 111.968C40.6196 107.489 43.6358 103.7 47.7016 101.395C52.0701 98.8122 55.8867 95.3939 58.9331 91.3353C61.9796 87.2767 64.1962 82.6575 65.4562 77.7416C66.6014 73.3153 69.1528 69.3805 72.7266 66.5289C76.3004 63.6773 80.7034 62.0631 85.2735 61.929C89.8436 61.7949 94.3337 63.1482 98.0685 65.7854C101.803 68.4226 104.581 72.201 105.984 76.5526C107.535 81.395 110.026 85.8839 113.314 89.762C116.603 93.6402 120.624 96.8314 125.148 99.1528C128.76 100.955 131.665 103.914 133.401 107.558C135.138 111.202 135.606 115.322 134.732 119.262C133.857 123.203 131.69 126.738 128.575 129.305C125.46 131.872 121.576 133.324 117.54 133.429Z" fill="#FFF1F1" stroke="white" stroke-width="122" mask="url(#path-1-inside-1_154_69)"/>
</svg>
